HIERARCHY
ROOT Hips
{
	OFFSET	0.00	0.00	0.00
	CHANNELS 6 Xposition Yposition Zposition Zrotation Xrotation Yrotation
	JOINT LeftUpLeg
	{
		OFFSET	 0.126116	-0.014019	-0.065224
		CHANNELS 3 Zrotation Xrotation Yrotation
		JOINT LeftLeg
		{
			OFFSET	 0.000000	 0.000000	 0.569914
			CHANNELS 3 Zrotation Xrotation Yrotation
			JOINT LeftFoot
			{
				OFFSET	 0.000000	 0.000000	 0.544423
				CHANNELS 3 Zrotation Xrotation Yrotation
				JOINT LeftToeBase
				{
					OFFSET	 0.000000	 0.000000	 0.207117
					CHANNELS 3 Zrotation Xrotation Yrotation
					End Site
					{
						OFFSET	 0.000000	 0.000000	 0.207117
					}
				}
			}
		}
	}
	JOINT RightUpLeg
	{
		OFFSET	-0.124023	-0.008373	-0.065224
		CHANNELS 3 Zrotation Xrotation Yrotation
		JOINT RightLeg
		{
			OFFSET	 0.000000	 0.000000	 0.570047
			CHANNELS 3 Zrotation Xrotation Yrotation
			JOINT RightFoot
			{
				OFFSET	 0.000000	 0.000000	 0.544354
				CHANNELS 3 Zrotation Xrotation Yrotation
				JOINT RightToeBase
				{
					OFFSET	 0.000000	 0.000000	 0.207540
					CHANNELS 3 Zrotation Xrotation Yrotation
					End Site
					{
						OFFSET	 0.000000	 0.000000	 0.207540
					}
				}
			}
		}
	}
	JOINT Spine
	{
		OFFSET	 0.000184	-0.007763	 0.117403
		CHANNELS 3 Zrotation Xrotation Yrotation
		JOINT Spine1
		{
			OFFSET	 0.000000	 0.000000	 0.137269
			CHANNELS 3 Zrotation Xrotation Yrotation
			JOINT Spine2
			{
				OFFSET	 0.000000	 0.000000	 0.156879
				CHANNELS 3 Zrotation Xrotation Yrotation
				JOINT LeftShoulder
				{
					OFFSET	 0.080501	-0.002496	 0.160144
					CHANNELS 3 Zrotation Xrotation Yrotation
					JOINT LeftArm
					{
						OFFSET	 0.000000	 0.000000	 0.164363
						CHANNELS 3 Zrotation Xrotation Yrotation
						JOINT LeftForeArm
						{
							OFFSET	 0.000000	 0.000000	 0.364576
							CHANNELS 3 Zrotation Xrotation Yrotation
							JOINT LeftHand
							{
								OFFSET	 0.000000	 0.000000	 0.360812
								CHANNELS 3 Zrotation Xrotation Yrotation
								JOINT LeftHandIndex1
								{
									OFFSET	 0.000000	 0.000000	 0.086006
									CHANNELS 3 Zrotation Xrotation Yrotation
									JOINT LeftHandIndex2
									{
										OFFSET	 0.000000	 0.000000	 0.047236
										CHANNELS 3 Zrotation Xrotation Yrotation
										JOINT LeftHandIndex3
										{
											OFFSET	-0.004284	-0.000551	 0.038166
											CHANNELS 3 Zrotation Xrotation Yrotation
											End Site
											{
												OFFSET	-0.004284	-0.000551	 0.038166
											}
										}
									}
								}
							}
						}
					}
				}
				JOINT Neck
				{
					OFFSET	 0.000000	 0.000000	 0.176489
					CHANNELS 3 Zrotation Xrotation Yrotation
					JOINT Head
					{
						OFFSET	 0.000000	-0.001747	 0.077940
						CHANNELS 3 Zrotation Xrotation Yrotation
						End Site
						{
							OFFSET	 0.000000	-0.001747	 0.077940
						}
					}
				}
				JOINT RightShoulder
				{
					OFFSET	-0.080363	 0.000306	 0.159706
					CHANNELS 3 Zrotation Xrotation Yrotation
					JOINT RightArm
					{
						OFFSET	 0.000000	 0.000000	 0.164196
						CHANNELS 3 Zrotation Xrotation Yrotation
						JOINT RightForeArm
						{
							OFFSET	 0.000000	 0.000000	 0.365611
							CHANNELS 3 Zrotation Xrotation Yrotation
							JOINT RightHand
							{
								OFFSET	 0.000000	 0.000000	 0.360648
								CHANNELS 3 Zrotation Xrotation Yrotation
								JOINT RightHandIndex1
								{
									OFFSET	 0.000000	 0.000000	 0.069977
									CHANNELS 3 Zrotation Xrotation Yrotation
									JOINT RightHandIndex2
									{
										OFFSET	 0.000000	 0.000000	 0.052305
										CHANNELS 3 Zrotation Xrotation Yrotation
										JOINT RightHandIndex3
										{
											OFFSET	 0.009002	-0.000782	 0.042196
											CHANNELS 3 Zrotation Xrotation Yrotation
											End Site
											{
												OFFSET	 0.009002	-0.000782	 0.042196
											}
										}
									}
								}
							}
						}
					}
				}
			}
		}
	}
}
MOTION
Frames:    8
Frame Time: 0.03333334
 0.010174	 0.022039	 1.189866	 5.098355	-1.375812	-3.671978	 20.451950	-9.866150	-176.453400	 1.002275	-41.569430	 0.431014	 84.597780	 84.133890	-88.352350	-2.369607	 31.580090	-0.069135	-27.079930	-35.308500	-177.061500	 10.554330	-50.031920	 8.716311	-0.294526	 74.501390	 7.094071	 2.358854	 33.016600	 0.103608	-6.671260	 8.851495	 0.736406	 1.815023	 3.154573	 3.355389	-9.504314	-2.384526	-4.272894	-93.953770	 58.952550	 175.357100	 10.464790	 26.453270	-41.595380	-5.115233	 0.111535	-2.384264	 0.194339	-8.045973	-7.612220	-4.870142	 19.242660	-2.790774	-3.878674	 21.509290	 2.199851	-4.806266	 5.569000	 0.145593	-0.071974	-5.079805	 0.186149	-11.405010	 1.841159	 1.988621	 89.775320	 61.652530	 179.983900	-18.539070	 49.689510	 8.474674	 2.035116	-1.123453	 11.608960	-4.327800	 6.686868	 0.488289	 6.292151	 24.700600	-0.537973	 1.906128	 44.533370	-7.011491	 0.554152	 24.153750	 3.554169
 0.009050	-0.004643	 1.183904	 5.495333	-1.028554	-3.680893	 20.899020	-9.262399	-177.179500	 1.194092	-42.327690	 0.566580	 101.326200	 84.617450	-105.102800	-2.368927	 31.693370	-0.071706	-29.727390	-37.187570	-179.034400	 10.525640	-46.776780	 8.272243	-5.877221	 74.574400	 12.909200	 2.358958	 33.000940	 0.103249	-10.475640	 8.676057	 0.678524	 1.702815	 3.108427	 3.353008	-9.518132	-2.291561	-4.218815	-94.050490	 58.971340	 175.148500	 9.259872	 24.600760	-41.843060	-6.902624	 0.257896	-3.192414	 0.255556	-8.168955	-8.029039	-4.866988	 19.324300	-2.796283	-3.873307	 21.577800	 2.194399	-4.805061	 5.583261	 0.144758	-0.051360	-5.095919	 0.213540	-11.360990	 1.954567	 1.948208	 89.738280	 61.718040	 179.895300	-18.421660	 50.213430	 7.381732	 3.293339	-0.760782	 12.318860	-4.161306	 6.982675	 0.315795	 6.282918	 24.021220	-0.545041	 1.987498	 43.862670	-7.083820	 0.698222	 23.516800	 3.482058
 0.005961	-0.069707	 1.168175	 6.224717	-0.213988	-3.825127	 22.001480	-7.469179	-179.006100	 1.549971	-43.585320	 0.825495	 142.288300	 84.092330	-145.948800	-2.367013	 32.006430	-0.078821	-35.274180	-39.958240	 175.958800	 10.230680	-37.670930	 6.767339	-17.467180	 73.714170	 24.509650	 2.359976	 32.850910	 0.099767	-18.721300	 8.204219	 0.669686	 1.406384	 3.029491	 3.303367	-9.450900	-2.074260	-4.059157	-94.261480	 58.990960	 174.696000	 6.549798	 20.726180	-42.332260	-11.039240	 0.755570	-4.986121	 0.120723	-8.570798	-8.418321	-4.855838	 19.591770	-2.810354	-3.858721	 21.763450	 2.179586	-4.799549	 5.648176	 0.140956	-0.015388	-5.143164	 0.278699	-11.198950	 2.217315	 1.911481	 89.633650	 61.874020	 179.643100	-17.967320	 51.045750	 6.458072	 5.872197	 0.363437	 10.567520	-3.915043	 7.686909	-0.334912	 6.257102	 22.334220	-0.583094	 2.164595	 42.340680	-7.240222	 1.069079	 21.844270	 3.302572
 0.002310	-0.128917	 1.147909	 6.559428	 0.449739	-4.170727	 23.516470	-5.750607	 179.131500	 1.785406	-45.025600	 1.013620	 168.894200	 81.836990	-172.248200	-2.362704	 32.679630	-0.094256	-39.293110	-43.867970	 171.249500	 10.459230	-34.032570	 6.364749	-30.463070	 76.259210	 36.976440	 2.358129	 33.124360	 0.106114	-26.181510	 7.695857	 0.906945	 1.145148	 3.068188	 3.166469	-9.198761	-1.821412	-3.824211	-94.420140	 58.975400	 174.360300	 4.314211	 18.162360	-42.717610	-15.453470	 1.481410	-6.722184	-0.637094	-8.993704	-7.941185	-4.837008	 19.995780	-2.821480	-3.838066	 22.024780	 2.158597	-4.784044	 5.830523	 0.130237	 0.007242	-5.225623	 0.329646	-10.917540	 2.473614	 1.934521	 89.504630	 62.004150	 179.329800	-17.119760	 51.215020	 6.902156	 8.119806	 1.408203	 6.796800	-3.802774	 8.337363	-1.633840	 6.219819	 20.272620	-0.659827	 2.380785	 40.359730	-7.429121	 1.521309	 19.741770	 3.096199
-0.001848	-0.181971	 1.126089	 6.742651	 0.710025	-4.434919	 24.902470	-3.906401	 177.007200	 2.004921	-46.271980	 1.194092	-176.069600	 79.680270	 173.163000	-2.352226	 34.177340	-0.129247	-42.199320	-48.811520	 167.056800	 11.054140	-35.400400	 6.907540	-62.255300	 80.819490	 68.147900	 2.346608	 34.699630	 0.143297	-32.373600	 7.495317	 1.135102	 0.900057	 3.061241	 2.963699	-8.781516	-1.565429	-3.531059	-94.502240	 58.940950	 174.190900	 2.367569	 16.704170	-42.981150	-19.142250	 2.330845	-8.238367	-1.547982	-9.267771	-7.784297	-4.829387	 20.338050	-2.879142	-3.812820	 22.341870	 2.132955	-4.755913	 6.160089	 0.110731	 0.049917	-5.321084	 0.348629	-10.468870	 2.727289	 1.867996	 89.410510	 62.031830	 179.101600	-16.047030	 51.411580	 4.896242	 9.966446	 2.246231	 8.320402	-3.460562	 8.534611	-3.152866	 6.182271	 18.068900	-0.713228	 2.657324	 37.609850	-7.667051	 1.977128	 17.554470	 2.902798
-0.006981	-0.241023	 1.111553	 7.021168	 0.714857	-4.475890	 24.861640	-0.824913	 174.922000	 2.322116	-44.939360	 1.391374	-164.095800	 79.658790	 161.583700	-2.327452	 37.147960	-0.201654	-43.554680	-50.893500	 164.617600	 11.755830	-35.825550	 7.401817	-75.084230	 81.137830	 80.437500	 2.335858	 36.013520	 0.175188	-37.699060	 7.665038	 1.211568	 0.554014	 2.302157	 2.712693	-8.232100	-1.084082	-3.187249	-94.540170	 58.972900	 174.105000	 0.825446	 16.197550	-42.785620	-22.166000	 3.281506	-9.587687	-2.469333	-10.092410	-8.319966	-4.851364	 20.521760	-3.061066	-3.785232	 22.685330	 2.104939	-4.716110	 6.624012	 0.082972	 0.121043	-5.414118	 0.336873	-9.846137	 3.041682	 1.710802	 89.357890	 61.901210	 178.979200	-14.913770	 51.568190	 2.950357	 11.768280	 3.190076	 9.670408	-2.880607	 8.216461	-4.483948	 6.167881	 15.860160	-0.637030	 2.895246	 35.030570	-7.867935	 2.420635	 15.363490	 2.729448
-0.013206	-0.305396	 1.103551	 7.281123	 0.584023	-4.025435	 23.898720	 3.185846	 172.597700	 2.561185	-41.918880	 1.475837	-143.554900	 81.467830	 141.722500	-2.266771	 42.527310	-0.345586	-42.568950	-49.704570	 164.502900	 10.791220	-35.826800	 6.820799	-61.948200	 79.823880	 68.633190	 2.339100	 35.631080	 0.165824	-42.093860	 7.745342	 0.963249	 0.028487	 1.290776	 2.160176	-7.589415	-0.389146	-2.716501	-94.507840	 59.232970	 174.130600	-0.197178	 16.349120	-42.091710	-25.050390	 4.311477	-10.785080	-3.585225	-10.946490	-9.016010	-4.880176	 20.621730	-3.259010	-3.762898	 22.961080	 2.082261	-4.668231	 7.177782	 0.049374	 0.194607	-5.480503	 0.272161	-9.076220	 3.377709	 1.719667	 89.355560	 61.619060	 178.984300	-13.977650	 51.610430	 1.364394	 13.568070	 4.214973	 10.874960	-2.462552	 7.664542	-5.523341	 6.201745	 13.695210	-0.349660	 3.038826	 33.370100	-7.987215	 2.833202	 13.273020	 2.581938
-0.020268	-0.372179	 1.097830	 7.674833	 0.156339	-3.063133	 23.171820	 5.859898	 169.507400	 1.682448	-41.827700	 0.886875	-107.496500	 81.944820	 108.029200	-2.121304	 50.698370	-0.611239	-40.169130	-47.116810	 165.775200	 7.562999	-37.817280	 5.124406	-48.504310	 75.804920	 59.980020	 2.339982	 35.525420	 0.163246	-45.283050	 7.886118	 0.180477	-0.555044	 0.417677	 1.678770	-6.901686	 0.361262	-2.358375	-94.440620	 59.337220	 174.257700	-0.485767	 16.608790	-41.124980	-27.933910	 5.392884	-11.837020	-4.571174	-10.923810	-9.152600	-4.895002	 20.752840	-3.388128	-3.750189	 23.117050	 2.069364	-4.614455	 7.794448	 0.011356	 0.281130	-5.466340	 0.245506	-8.218954	 3.768391	 2.072892	 89.333620	 61.404110	 178.940200	-13.205440	 51.455850	 0.410872	 15.408870	 5.291248	 11.930610	-2.361818	 7.067898	-6.003943	 6.287580	 11.542440	 0.116698	 3.165314	 31.838300	-8.090948	 3.192914	 11.412130	 2.464591
